<?xml version="1.0" encoding="iso-8859-1"?>
<!-- Uploaded to: SVG Repo, www.svgrepo.com, Generator: SVG Repo Mixer Tools -->
<svg fill="#FACA15" height="800px" width="800px" version="1.1" id="Layer_1" xmlns="http://www.w3.org/2000/svg" xmlns:xlink="http://www.w3.org/1999/xlink" 
	 viewBox="0 0 511.956 511.956" xml:space="preserve">
<g>
	<g>
		<path d="M358.378,162.09h-8.533v-8.533c0-32.93-26.803-59.733-59.733-59.733h-68.267c-4.71,0-8.533-3.823-8.533-8.533v-8.533h25.6
			c4.719,0,8.533-3.814,8.533-8.533v-8.491c0-24.363-13.67-45.824-34.825-54.682c-14.268-5.982-29.978-6.69-44.663-1.911
			c-23.91,7.774-39.979,30.618-39.979,56.841v8.243c0,4.719,3.814,8.533,8.533,8.533h25.6v8.533
			c0,32.93,26.803,59.733,59.733,59.733h68.267c4.71,0,8.533,3.823,8.533,8.533v8.533h-8.533c-14.114,0-25.6,11.486-25.6,25.6v51.2
			c0,14.114,11.486,25.6,25.6,25.6h8.533v8.533c0,4.71-3.823,8.533-8.533,8.533h-68.267c-32.93,0-59.733,26.803-59.733,59.733
			h-8.533c-4.719,0-8.533,3.814-8.533,8.533v25.6c0,2.679,1.263,5.214,3.413,6.827l13.653,10.24v93.867
			c0,2.27,0.896,4.437,2.5,6.033l17.067,17.067c1.664,1.664,3.849,2.5,6.033,2.5c2.185,0,4.369-0.836,6.033-2.5l17.067-17.067
			c1.604-1.596,2.5-3.763,2.5-6.033V392.49l13.653-10.24c2.15-1.613,3.413-4.147,3.413-6.827v-25.6c0-4.719-3.814-8.533-8.533-8.533
			h-8.533c0-4.71,3.823-8.533,8.533-8.533h68.267c32.93,0,59.733-26.803,59.733-59.733v-8.533h8.533c14.114,0,25.6-11.486,25.6-25.6
			v-51.2C383.978,173.576,372.492,162.09,358.378,162.09z M170.645,59.69h-25.6c0.128-18.398,11.674-34.953,28.194-40.32
			c10.846-3.524,22.229-3.004,32.794,1.425c14.558,6.093,24.329,21.717,24.346,38.895h-25.6H170.645z M213.312,371.156l-25.6,19.2
			l-25.6-19.2v-12.8h8.533h34.133h8.533V371.156z M366.911,238.89c0,4.71-3.823,8.533-8.533,8.533h-17.067h-34.133h-17.067
			c-4.71,0-8.533-3.823-8.533-8.533v-51.2c0-4.71,3.823-8.533,8.533-8.533h17.067h34.133h17.067c4.71,0,8.533,3.823,8.533,8.533
			V238.89z"/>
	</g>
</g>
</svg>