<?xml version="1.0" encoding="iso-8859-1"?>
<!-- Uploaded to: SVG Repo, www.svgrepo.com, Generator: SVG Repo Mixer Tools -->
<svg fill="#FACA15" height="800px" width="800px" version="1.1" id="Layer_1" xmlns="http://www.w3.org/2000/svg" xmlns:xlink="http://www.w3.org/1999/xlink" 
	 viewBox="0 0 512 512" xml:space="preserve">
<g>
	<g>
		<g>
			<path d="M401.067,448c-13.483,0-24.772,9.037-28.476,21.333h-18.458v-57.694c2.389-1.28,4.83-2.458,7.185-3.806l14.114-8.064
				c2.662-1.519,4.301-4.352,4.301-7.415v-16.887c0-4.719-3.823-8.533-8.533-8.533H218.121c-19.106,0-34.654-15.539-34.654-34.654
				V110.933c0-18.825,15.309-34.133,34.133-34.133h51.2v17.067c0,4.719,3.823,8.533,8.533,8.533h85.333
				c4.71,0,8.533-3.814,8.533-8.533v-24.73c0-2.005-0.7-3.934-1.98-5.47C335.505,23.211,285.952,0,233.276,0H166.4
				c-47.053,0-85.333,38.281-85.333,85.333V358.4c0,47.053,38.281,85.333,85.333,85.333h59.733c20.156,0,40.183-2.389,59.733-6.784
				v32.384h-18.458C263.706,457.037,252.416,448,238.933,448c-16.469,0-29.867,13.397-29.867,29.867
				c0,16.469,13.397,29.867,29.867,29.867c13.483,0,24.772-9.037,28.476-21.333h18.458v17.067c0,4.719,3.823,8.533,8.533,8.533h51.2
				c4.71,0,8.533-3.814,8.533-8.533V486.4h18.458c3.703,12.297,14.993,21.333,28.476,21.333c16.469,0,29.867-13.397,29.867-29.867
				C430.933,461.397,417.536,448,401.067,448z M337.067,494.933h-34.133v-62.276c1.374-0.401,2.731-0.93,4.096-1.357
				c3.567-1.109,7.108-2.278,10.633-3.533c1.741-0.631,3.482-1.28,5.214-1.946c4.292-1.63,8.533-3.362,12.74-5.205
				c0.478-0.213,0.973-0.375,1.451-0.589V494.933z"/>
			<polygon points="354.133,221.085 285.867,214.54 285.867,231.214 354.133,238.032 			"/>
			<polygon points="354.133,255.189 285.867,248.363 285.867,265.344 354.133,272.171 			"/>
			<path d="M285.867,341.333c0,4.719,3.823,8.533,8.533,8.533h51.2c4.71,0,8.533-3.814,8.533-8.533v-17.877l-68.267-6.827V341.333z"
				/>
			<polygon points="354.133,289.323 285.867,282.496 285.867,299.477 354.133,306.304 			"/>
			<path d="M354.135,187.733c3.917,0,7.33-2.662,8.277-6.468l8.533-34.133c0.64-2.551,0.06-5.248-1.553-7.313
				c-1.621-2.074-4.096-3.285-6.724-3.285h-85.333c-2.628,0-5.111,1.212-6.724,3.285c-1.621,2.065-2.193,4.762-1.553,7.313
				l8.533,34.133c0.947,3.806,4.361,6.468,8.277,6.468v9.668l68.267,6.545V187.733z M347.471,170.667h-1.869h-51.2h-1.869
				l-4.267-17.067h63.471L347.471,170.667z"/>
		</g>
	</g>
</g>
</svg>