<?xml version="1.0" encoding="iso-8859-1"?>
<!-- Uploaded to: SVG Repo, www.svgrepo.com, Generator: SVG Repo Mixer Tools -->
<svg fill="#FACA15" height="800px" width="800px" version="1.1" id="Layer_1" xmlns="http://www.w3.org/2000/svg" xmlns:xlink="http://www.w3.org/1999/xlink" 
	 viewBox="0 0 511.985 511.985" xml:space="preserve">
<g>
	<g>
		<path d="M503.236,165.915l-21.077-21.077c-6.647-6.647-17.476-6.647-24.132,0l-24.149-24.132
			c3.226-3.217,5.009-7.501,5.009-12.058c0-4.565-1.775-8.858-5.001-12.083L393.762,56.44
			C345.924,8.594,263.398,4.097,213.564,46.601h-0.009c-4.924,4.207-9.566,8.781-13.807,13.611
			c-4.915,5.589-5.666,13.389-1.937,19.874c3.78,6.562,10.991,9.822,18.432,8.38l2.381-0.486c21.299-4.275,43.75-1.246,63.206,8.465
			c5.547,2.773,18.099,13.21,28.74,22.673L7.646,415.216C2.79,419.986,0,426.608,0,433.4v2.987
			c0,32.077,26.095,58.172,58.163,58.172h11.469c6.861,0,13.525-2.825,18.278-7.757l302.225-313.31l19.627,19.618
			c-3.226,3.217-5.009,7.501-5.009,12.058c0,4.565,1.775,8.858,5,12.083l21.077,21.069c5.837,5.837,13.5,8.755,21.163,8.755
			c7.671,0,15.326-2.918,21.163-8.755l30.08-30.08C514.901,196.575,514.901,177.58,503.236,165.915z M215.834,249.592l76.8-76.8
			c3.337-3.337,8.738-3.337,12.066,0c3.337,3.328,3.337,8.73,0,12.066l-76.8,76.8c-1.664,1.664-3.849,2.5-6.033,2.5
			c-2.176,0-4.361-0.836-6.033-2.5C212.506,258.322,212.506,252.92,215.834,249.592z M130.5,334.926l59.733-59.733
			c3.337-3.337,8.738-3.337,12.066,0c3.337,3.328,3.337,8.73,0,12.066l-59.733,59.733c-1.664,1.664-3.849,2.5-6.033,2.5
			c-2.176,0-4.361-0.836-6.033-2.5C127.172,343.655,127.172,338.254,130.5,334.926z M45.167,432.325
			c-3.328-3.337-3.328-8.738,0-12.066l59.733-59.733c3.336-3.337,8.738-3.337,12.066,0c3.337,3.328,3.337,8.73,0,12.066
			l-59.733,59.733c-1.664,1.664-3.849,2.5-6.033,2.5C49.024,434.825,46.839,433.989,45.167,432.325z M176.7,355.525L65.766,466.459
			c-1.664,1.664-3.849,2.5-6.033,2.5c-2.176,0-4.361-0.836-6.033-2.5c-3.328-3.337-3.328-8.738,0-12.066l110.933-110.933
			c3.337-3.337,8.738-3.337,12.066,0C180.036,346.787,180.036,352.189,176.7,355.525z M262.033,270.192L202.3,329.925
			c-1.664,1.664-3.849,2.5-6.033,2.5c-2.176,0-4.361-0.836-6.033-2.5c-3.328-3.337-3.328-8.738,0-12.066l59.733-59.733
			c3.337-3.336,8.738-3.336,12.066,0C265.37,261.454,265.37,266.855,262.033,270.192z M313.233,218.992l-25.6,25.6
			c-1.664,1.664-3.849,2.5-6.033,2.5c-2.176,0-4.36-0.836-6.033-2.5c-3.328-3.336-3.328-8.738,0-12.066l25.6-25.6
			c3.337-3.336,8.738-3.336,12.066,0C316.57,210.254,316.57,215.655,313.233,218.992z M491.17,196.174l-30.08,30.08
			c-5.018,5.026-13.175,5.018-18.193,0l-21.077-21.069c6.656-6.664,6.656-17.485,0-24.141l-24.132-24.141
			c-1.212-1.212-2.594-2.125-4.036-2.893c-0.418-0.273-0.879-0.486-1.331-0.7c-0.137-0.06-0.273-0.128-0.418-0.188
			c-2.867-1.254-6.187-1.562-9.455-0.905c-0.043,0.008-0.077,0.008-0.12,0.017c-0.836,0.179-1.655,0.435-2.466,0.734
			c-0.273,0.094-0.546,0.162-0.819,0.273c-0.649,0.273-1.263,0.631-1.886,0.99c-0.341,0.196-0.691,0.35-1.024,0.572
			c-0.913,0.606-1.783,1.306-2.577,2.099l-36.207-36.198c-0.683-0.674-1.664-1.621-2.807-2.722
			c-0.802-0.768-1.681-1.596-2.628-2.483c-0.239-0.222-0.478-0.444-0.725-0.674c-0.794-0.742-1.51-1.425-2.381-2.227l-5.965-5.487
			l-0.043,0.051c-11.204-10.027-25.583-22.101-33.34-25.984c-22.827-11.409-49.161-14.916-74.206-9.933l-2.688,0.239
			c3.703-4.224,7.765-8.226,12.066-11.904c43.366-36.958,115.277-32.853,157.065,8.926l40.115,40.132
			c-6.63,6.647-6.63,17.476,0.009,24.132l24.141,24.132c6.647,6.656,17.485,6.656,24.132,0l21.077,21.077
			C496.188,182.998,496.188,191.156,491.17,196.174z"/>
	</g>
</g>
</svg>