<?xml version="1.0" encoding="iso-8859-1"?>
<!-- Uploaded to: SVG Repo, www.svgrepo.com, Generator: SVG Repo Mixer Tools -->
<svg fill="#FACA15" height="800px" width="800px" version="1.1" id="Layer_1" xmlns="http://www.w3.org/2000/svg" xmlns:xlink="http://www.w3.org/1999/xlink" 
	 viewBox="0 0 503.607 503.607" xml:space="preserve">
<g>
	<g>
		<g>
			<path d="M377.705,218.23c-15.595,0-28.63,10.744-32.382,25.18h64.764C406.335,228.973,393.3,218.23,377.705,218.23z"/>
			<path d="M377.705,285.377c15.595,0,28.63-10.744,32.382-25.18h-64.764C349.075,274.633,362.11,285.377,377.705,285.377z"/>
			<path d="M125.902,218.23c-15.595,0-28.63,10.744-32.382,25.18h64.764C154.532,228.973,141.497,218.23,125.902,218.23z"/>
			<path d="M218.229,209.836h67.148c4.625,0,8.393-3.76,8.393-8.393v-33.574h-83.934v33.574
				C209.836,206.076,213.605,209.836,218.229,209.836z"/>
			<path d="M0,193.049v117.508c0,13.883,11.298,25.18,25.18,25.18h16.787V167.869H25.18C11.298,167.869,0,179.166,0,193.049z"/>
			<path d="M310.557,201.443c0,13.883-11.298,25.18-25.18,25.18h-67.148c-13.883,0-25.18-11.298-25.18-25.18v-33.574H58.754v167.869
				h386.098V167.869H310.557V201.443z M125.902,302.164c-27.774,0-50.361-22.587-50.361-50.361
				c0-27.774,22.587-50.361,50.361-50.361c27.774,0,50.361,22.587,50.361,50.361C176.262,279.577,153.676,302.164,125.902,302.164z
				 M377.705,201.443c27.774,0,50.361,22.587,50.361,50.361c0,27.774-22.587,50.361-50.361,50.361
				c-27.774,0-50.361-22.587-50.361-50.361C327.344,224.029,349.931,201.443,377.705,201.443z"/>
			<path d="M125.902,285.377c15.595,0,28.63-10.744,32.382-25.18H93.52C97.272,274.633,110.307,285.377,125.902,285.377z"/>
			<path d="M478.426,167.869h-16.787v167.869h16.787c13.883,0,25.18-11.298,25.18-25.18V193.049
				C503.607,179.166,492.309,167.869,478.426,167.869z"/>
		</g>
	</g>
</g>
</svg>