
<svg fill="#046C4E" version="1.1" id="Layer_1" xmlns="http://www.w3.org/2000/svg" xmlns:xlink="http://www.w3.org/1999/xlink" 
	 viewBox="0 0 511.825 511.825" xml:space="preserve">
<g>
	<g>
		<path d="M500.907,269.583l-12.8-26.453c-11.093-22.187-12.8-47.787-3.413-71.68l10.24-29.867c0-1.707,0-4.267-1.707-6.827
			c-1.707-1.707-4.267-3.413-6.827-3.413H384c-3.413,0-6.827,2.56-7.68,5.973l-10.24,29.867c-10.24,27.307-8.533,58.88,4.267,85.333
			l12.8,26.453c11.093,22.187,12.8,47.787,3.413,71.68l-8.533,23.04h-85.333l3.413-3.413c11.093-11.093,17.92-24.747,19.627-39.253
			H332.8v17.067c0,5.12,3.413,8.533,8.533,8.533c5.12,0,8.533-3.413,8.533-8.533v-51.2c0-5.12-3.413-8.533-8.533-8.533
			c-5.12,0-8.533,3.413-8.533,8.533v17.067h-17.067c-0.853-10.24-5.12-20.48-11.093-29.013l33.28-33.28
			c1.707-1.707,2.56-3.413,2.56-5.973s-0.853-4.267-2.56-5.973l-36.693-40.107c10.24-18.773,12.8-40.107,7.68-61.44
			c-5.12-23.04-19.627-42.667-39.253-55.467c-34.133-21.333-79.36-11.093-100.693,23.04c-17.92,28.16-9.387,64.853,18.773,82.773
			c11.093,6.827,24.747,9.387,37.547,5.973c12.8-3.413,23.893-11.093,30.72-22.187c5.973-9.387,7.68-20.48,5.12-31.573
			s-9.387-19.627-18.773-25.6c-7.68-5.12-17.067-6.827-26.453-4.267c-9.387,1.707-17.067,7.68-21.333,15.36
			c-2.56,4.267-1.707,9.387,2.56,11.947s9.387,1.707,11.947-2.56s6.827-6.827,11.093-7.68s9.387,0,13.653,2.56
			c5.12,3.413,9.387,8.533,11.093,15.36c1.707,5.973,0,12.8-3.413,18.773c-4.267,7.68-11.947,12.8-20.48,14.507
			s-17.067,0.853-24.747-4.267c-20.48-12.8-26.453-39.253-13.653-58.88c16.213-26.453,51.2-34.133,76.8-17.92
			c16.213,10.24,27.307,26.453,31.573,45.227s0.853,37.547-8.533,53.76L107.52,371.983H93.867v-56.32
			c24.747-10.24,42.667-34.987,42.667-63.147c0-37.547-30.72-68.267-68.267-68.267S0,214.969,0,252.516
			c0,28.16,17.92,52.907,42.667,63.147v56.32c-14.507,0-25.6,11.093-25.6,25.6v17.067c0,14.507,11.093,25.6,25.6,25.6h426.667
			c14.507,0,25.6-11.093,25.6-25.6v-33.28l10.24-26.453C515.413,326.756,513.707,296.036,500.907,269.583z M452.267,303.716
			c9.387,0,17.067,7.68,17.067,17.067s-7.68,17.067-17.067,17.067c-9.387,0-17.067-7.68-17.067-17.067
			C435.2,310.543,442.88,303.716,452.267,303.716z M418.133,184.249c9.387,0,17.067,7.68,17.067,17.067s-7.68,17.067-17.067,17.067
			s-17.067-7.68-17.067-17.067C401.067,191.076,408.747,184.249,418.133,184.249z M292.693,295.183
			c4.267,6.827,5.973,15.36,6.827,23.04c0,0.853-0.853,1.707-0.853,2.56s0,0.853,0,1.707c-0.853,12.8-5.12,24.747-14.507,34.133
			l-15.36,15.36h-52.907L292.693,295.183z M34.133,252.516c0-18.773,15.36-34.133,34.133-34.133c5.12,0,8.533,3.413,8.533,8.533
			s-3.413,8.533-8.533,8.533c-9.387,0-17.067,7.68-17.067,17.067c0,5.12-3.413,8.533-8.533,8.533S34.133,256.783,34.133,252.516z
			 M76.8,320.783v51.2H59.733v-51.2H76.8z M477.867,414.649c0,5.12-3.413,8.533-8.533,8.533H42.667c-5.12,0-8.533-3.413-8.533-8.533
			v-17.067c0-5.12,3.413-8.533,8.533-8.533H51.2h34.133h25.6h84.48h76.8H384h93.867V414.649z"/>
	</g>
</g>
</svg>