<?xml version="1.0" encoding="iso-8859-1"?>
<!-- Uploaded to: SVG Repo, www.svgrepo.com, Generator: SVG Repo Mixer Tools -->
<svg fill="#FACA15" height="800px" width="800px" version="1.1" id="Layer_1" xmlns="http://www.w3.org/2000/svg" xmlns:xlink="http://www.w3.org/1999/xlink" 
	 viewBox="0 0 511.994 511.994" xml:space="preserve">
<g>
	<g>
		<g>
			<path d="M367.799,243.818c-14.267-26.928-32.759-48.276-47.139-62.542c3.037-7.793,4.764-16.228,4.764-25.079
				c0-11.125-2.699-21.617-7.368-30.946c6.057-8.626,10.205-17.33,12.357-26.485c10.726-45.551-2.334-81.217-35.84-97.861
				c-2.334-1.154-5.085-1.206-7.472-0.121c-2.386,1.085-4.148,3.193-4.799,5.727L261.598,87.06
				c-1.848-0.148-3.706-0.286-5.597-0.286s-3.749,0.139-5.597,0.286L229.697,6.511c-0.659-2.534-2.421-4.643-4.799-5.727
				c-2.378-1.085-5.12-1.041-7.472,0.121c-33.506,16.644-46.566,52.311-35.84,97.853c2.152,9.164,6.3,17.868,12.357,26.494
				c-4.669,9.329-7.368,19.82-7.368,30.946c0,8.852,1.727,17.287,4.755,25.079c-14.371,14.267-32.872,35.614-47.13,62.542
				c-39.91,75.333-35.415,168.422,11.455,237.151c5.467,8.01,10.9,14.813,15.56,20.567c5.033,6.205,12.488,10.006,20.445,10.422
				c0.486,0.026,0.972,0.035,1.458,0.035c7.446,0,14.648-2.968,19.942-8.27c9.416-9.407,10.908-24.35,3.558-35.51
				c-31.093-47.191-39.138-72.088-39.138-121.101c0-42.86,36.586-98.547,56.155-125.258c7.029,2.404,14.527,3.766,22.363,3.766
				c7.828,0,15.334-1.362,22.363-3.766c19.56,26.711,56.155,82.397,56.155,125.258c0,49.013-8.053,73.91-39.138,121.101
				c-7.359,11.16-5.858,26.103,3.549,35.51c5.302,5.302,12.505,8.27,19.951,8.27c0.486,0,0.972-0.009,1.449-0.035
				c7.966-0.417,15.421-4.217,20.454-10.422c4.66-5.754,10.092-12.557,15.551-20.567C403.205,412.24,407.7,319.152,367.799,243.818z
				 M160.126,347.112c0,52.519,9.034,80.601,42.001,130.647c2.838,4.322,2.282,10.075-1.336,13.694
				c-2.204,2.204-5.085,3.428-8.227,3.167c-3.107-0.156-5.892-1.579-7.862-4.018c-4.452-5.484-9.615-11.958-14.701-19.413
				c-43.286-63.462-47.39-149.53-10.457-219.258c12.409-23.439,28.689-42.574,40.483-54.775c0.087,0.113,0.2,0.208,0.286,0.321
				c2.343,3.15,4.92,6.109,7.749,8.808c0.104,0.104,0.217,0.2,0.321,0.295c2.916,2.768,6.049,5.302,9.416,7.524
				C193.91,247.055,160.126,301.683,160.126,347.112z M217.687,98.358c-2.334,1.553-4.556,3.254-6.682,5.068
				c-0.252,0.217-0.495,0.46-0.746,0.677c-1.84,1.614-3.575,3.332-5.241,5.129c-0.165,0.182-0.356,0.338-0.521,0.521
				c-2.838-4.946-4.825-9.902-6.023-14.969c-7.689-32.681-1.527-57.986,17.339-72.53l17.564,68.313
				c-0.469,0.156-0.911,0.399-1.371,0.573c-1.883,0.694-3.723,1.467-5.519,2.317c-0.66,0.312-1.319,0.616-1.97,0.946
				c-2.239,1.146-4.417,2.386-6.508,3.766C217.895,98.237,217.791,98.289,217.687,98.358z M256,190.909
				c-19.144,0-34.712-15.568-34.712-34.712c0-19.144,15.568-34.712,34.712-34.712c19.135,0,34.712,15.568,34.712,34.712
				C290.712,175.341,275.135,190.909,256,190.909z M287.475,94.401c-0.651-0.33-1.302-0.633-1.961-0.946
				c-1.805-0.85-3.636-1.623-5.519-2.317c-0.469-0.174-0.903-0.417-1.371-0.573l17.556-68.313
				c18.875,14.544,25.036,39.849,17.339,72.539c-1.189,5.068-3.176,10.014-6.014,14.961c-0.165-0.182-0.364-0.338-0.529-0.521
				c-1.657-1.796-3.402-3.515-5.241-5.129c-0.252-0.217-0.486-0.46-0.746-0.677c-2.117-1.814-4.339-3.515-6.673-5.068
				c-0.104-0.069-0.217-0.121-0.321-0.191C291.901,96.788,289.723,95.547,287.475,94.401z M341.999,471.19
				c-5.085,7.454-10.257,13.928-14.701,19.413c-1.97,2.439-4.764,3.862-7.871,4.018c-3.107,0.312-6.014-0.963-8.218-3.167
				c-3.619-3.619-4.183-9.372-1.336-13.694c32.968-50.046,42.001-78.128,42.001-130.647c0-45.429-33.783-100.057-57.674-133.007
				c3.367-2.222,6.491-4.755,9.416-7.524c0.104-0.095,0.217-0.191,0.321-0.295c2.829-2.699,5.406-5.658,7.741-8.808
				c0.087-0.113,0.208-0.208,0.295-0.321c11.793,12.201,28.065,31.336,40.483,54.775C389.389,321.66,385.285,407.728,341.999,471.19
				z"/>
			<path d="M255.999,138.843c-9.572,0-17.356,7.784-17.356,17.356s7.784,17.356,17.356,17.356c9.572,0,17.356-7.784,17.356-17.356
				S265.57,138.843,255.999,138.843z"/>
		</g>
	</g>
</g>
</svg>