<?xml version="1.0" encoding="iso-8859-1"?>
<!-- Uploaded to: SVG Repo, www.svgrepo.com, Generator: SVG Repo Mixer Tools -->
<svg fill="#FACA15" height="800px" width="800px" version="1.1" id="Layer_1" xmlns="http://www.w3.org/2000/svg" xmlns:xlink="http://www.w3.org/1999/xlink" 
	 viewBox="0 0 503.607 503.607" xml:space="preserve">
<g>
	<g>
		<g>
			<path d="M503.598,386.098h-41.959c-4.633,0-8.393-3.752-8.393-8.393c0-4.642,3.76-8.393,8.393-8.393h41.959v-16.787h-41.959
				c-4.633,0-8.393-3.752-8.393-8.393c0-4.642,3.76-8.393,8.393-8.393h41.95V301.61l-8.393-125.902
				c-0.008-0.126-0.017-0.26-0.034-0.378l-8.343-74.685c-0.277-13.883-11.667-25.105-25.625-25.105H209.836
				c0-4.642-3.76-8.393-8.393-8.393h-33.574c-4.633,0-8.393,3.752-8.393,8.393v25.18h-33.456c-18.575,0-33.691,15.117-33.691,33.691
				v8.276H8.393C3.76,142.688,0,146.44,0,151.082c0,4.642,3.76,8.393,8.393,8.393h83.934v8.276
				c0,18.575,15.117,33.691,33.691,33.691h33.456v50.361h-16.787c-2.913,0-5.607,1.511-7.143,3.987
				c-1.528,2.476-1.662,5.565-0.369,8.158l15.906,31.803v113.547l-7.512,15.016c-1.293,2.594-1.158,5.682,0.369,8.158
				c1.536,2.476,4.23,3.987,7.143,3.987h67.148c2.913,0,5.607-1.511,7.143-3.987c1.528-2.476,1.662-5.565,0.369-8.158l-7.512-15.016
				V295.751l15.906-31.803c1.293-2.594,1.158-5.682-0.369-8.158c-1.536-2.476-4.23-3.987-7.143-3.987h-16.787v-36.125
				c9.107,10.383,21.412,18.038,35.756,21.353c41.287,9.527,84.833,9.711,126.246,0.739l14.596,49.958
				c1.049,3.584,4.331,6.043,8.058,6.043h16.787v57.738c0,9.241-3.601,17.928-10.139,24.458l-3.282,3.299
				c-7.579,7.571-11.759,17.651-11.759,28.37v5.338c0,12.951,10.534,23.485,23.485,23.485h68.843c13.883,0,25.18-11.298,25.18-25.18
				L503.598,386.098z M193.049,170.974v80.829h-16.787v-58.754v-83.934v-25.18h16.787V170.974z M310.557,193.049H243.41
				c-4.633,0-8.393-3.752-8.393-8.393v-67.148c0-4.642,3.76-8.393,8.393-8.393c38.123,0,75.541,37.418,75.541,75.541
				C318.951,189.297,315.191,193.049,310.557,193.049z M411.279,276.984h-10.492l-12.531-42.882l23.023-5.321V276.984z
				 M436.459,159.475h-50.361c-4.633,0-8.393-3.752-8.393-8.393c0-4.642,3.76-8.393,8.393-8.393h50.361
				c4.633,0,8.393,3.752,8.393,8.393C444.852,155.724,441.092,159.475,436.459,159.475z M436.459,125.902h-50.361
				c-4.633,0-8.393-3.752-8.393-8.393c0-4.642,3.76-8.393,8.393-8.393h50.361c4.633,0,8.393,3.752,8.393,8.393
				C444.852,122.15,441.092,125.902,436.459,125.902z"/>
			<path d="M251.803,126.738v49.521h49.521C296.817,153.278,274.784,131.245,251.803,126.738z"/>
		</g>
	</g>
</g>
</svg>