<?xml version="1.0" encoding="iso-8859-1"?>
<!-- Uploaded to: SVG Repo, www.svgrepo.com, Generator: SVG Repo Mixer Tools -->
<svg fill="#FACA15" height="800px" width="800px" version="1.1" id="Layer_1" xmlns="http://www.w3.org/2000/svg" xmlns:xlink="http://www.w3.org/1999/xlink" 
	 viewBox="0 0 503.613 503.613" xml:space="preserve">
<g>
	<g>
		<g>
			<path d="M503.607,121.708V37.774c0-13.883-11.289-25.18-25.18-25.18h-33.574v58.754c0,4.642-3.752,8.393-8.393,8.393
				c-4.633,0-8.393-3.752-8.393-8.393V12.593h-16.787v41.967c0,4.642-3.752,8.393-8.393,8.393c-4.633,0-8.393-3.752-8.393-8.393
				V12.593h-16.787v58.754c0,4.642-3.752,8.393-8.393,8.393c-4.633,0-8.393-3.752-8.393-8.393V12.593h-16.787v41.967
				c0,4.642-3.752,8.393-8.393,8.393c-4.633,0-8.393-3.752-8.393-8.393V12.593h-16.787v58.754c0,4.642-3.752,8.393-8.393,8.393
				c-4.633,0-8.393-3.752-8.393-8.393V12.593h-16.787v41.967c0,4.642-3.752,8.393-8.393,8.393c-4.633,0-8.393-3.752-8.393-8.393
				V12.593H243.41v58.754c0,4.642-3.752,8.393-8.393,8.393c-4.633,0-8.393-3.752-8.393-8.393V12.593h-16.787v41.967
				c0,4.642-3.752,8.393-8.393,8.393c-4.633,0-8.393-3.752-8.393-8.393V12.593h-16.787v58.754c0,4.642-3.752,8.393-8.393,8.393
				c-4.633,0-8.393-3.752-8.393-8.393V12.593h-16.787v41.967c0,4.642-3.752,8.393-8.393,8.393c-4.633,0-8.393-3.752-8.393-8.393
				V12.593H19.767C8.872,12.593,0,21.465,0,32.36v94.284c0,7.856,4.541,14.596,11.088,17.954c0.084,0.076,0.126,0.176,0.218,0.252
				l63.48,54.86l24.131-26.7c3.106-3.433,8.402-3.71,11.852-0.604c3.433,3.106,3.71,8.419,0.596,11.86l-23.871,26.423l12.364,10.685
				l35.538-39.617c3.089-3.45,8.402-3.752,11.852-0.646c3.45,3.097,3.743,8.402,0.646,11.86l-35.32,39.382l12.909,11.163
				l24.878-27.371c3.122-3.416,8.427-3.668,11.86-0.562c3.425,3.122,3.676,8.427,0.562,11.86l-24.584,27.06l12.33,10.651
				l36.327-40.263c3.097-3.441,8.41-3.727,11.852-0.604c3.441,3.106,3.718,8.41,0.613,11.852l-36.083,39.995l12.943,11.18
				l25.642-28.017c3.122-3.424,8.427-3.676,11.86-0.529c3.416,3.122,3.651,8.435,0.52,11.86l-25.323,27.665l12.666,10.945
				l36.721-41.145c3.072-3.45,8.377-3.76,11.852-0.671c3.45,3.089,3.752,8.393,0.672,11.852l-36.537,40.943l13.245,11.449
				l25.524-28.932c2.988-3.567,8.276-4.02,11.826-1.032c3.55,2.971,4.012,8.268,1.032,11.818l-25.684,29.117l3.215,2.778v53.282
				c0,4.642-3.752,8.393-8.393,8.393c-4.633,0-8.393-3.752-8.393-8.393v-58.754h-16.787v41.967c0,4.642-3.752,8.393-8.393,8.393
				c-4.633,0-8.393-3.752-8.393-8.393v-41.967h-16.787v58.754c0,4.642-3.752,8.393-8.393,8.393c-4.633,0-8.393-3.752-8.393-8.393
				v-58.754h-16.787v41.967c0,4.642-3.752,8.393-8.393,8.393c-4.633,0-8.393-3.752-8.393-8.393v-41.967H19.767
				C8.872,339.938,0,348.809,0,359.704v94.762c0,10.903,8.872,19.767,19.767,19.767h372.728l12.07,10.433
				c4.935,4.146,11.037,6.354,17.408,6.354c0.797,0,1.612-0.034,2.409-0.101c7.235-0.638,13.782-4.046,18.44-9.602l5.943-7.084
				h29.662c13.891,0,25.18-11.289,25.18-25.18v-47.028c0.008-0.21,0.008-0.411,0-0.621v-36.285c0-13.883-11.289-25.18-25.18-25.18
				h-37.418L210.936,146.888h267.491C492.317,146.888,503.607,135.599,503.607,121.708z M67.265,113.206
				c-18.449,0-33.456-15.008-33.456-33.465c0-18.449,15.007-33.456,33.456-33.456s33.456,15.007,33.456,33.456
				C100.721,98.198,85.714,113.206,67.265,113.206z M67.265,440.55c-18.449,0-33.456-15.008-33.456-33.465
				c0-18.449,15.007-33.456,33.456-33.456s33.456,15.007,33.456,33.456C100.721,425.542,85.714,440.55,67.265,440.55z
				 M486.82,449.052c0,4.633-3.76,8.393-8.393,8.393h-15.57l23.963-28.563V449.052z M478.426,356.724
				c4.633,0,8.393,3.769,8.393,8.393v13.262l-25.801-21.655H478.426z M391.369,385.95c5.75-6.857,13.816-11.054,22.713-11.826
				c8.88-0.848,17.576,1.947,24.425,7.697c6.849,5.741,11.046,13.807,11.826,22.713c0.781,8.905-1.956,17.576-7.697,24.425
				c-6.614,7.873-16.107,11.935-25.667,11.935c-7.588,0-15.217-2.56-21.47-7.806c-6.849-5.758-11.046-13.816-11.826-22.721
				S385.628,392.791,391.369,385.95z M352.793,353.569c3.55,2.98,4.012,8.276,1.032,11.826l-25.894,30.863l-12.708-10.97
				l25.743-30.686C343.946,351.042,349.251,350.589,352.793,353.569z M316.282,344.848c3.55,2.98,4.012,8.276,1.041,11.818
				l-14.798,17.643l-12.708-10.979l14.638-17.45C307.435,342.321,312.74,341.876,316.282,344.848z M301.358,310.418
				c3.55,2.971,4.012,8.268,1.032,11.818l-25.273,30.116l-12.003-10.374c-0.243-0.201-0.546-0.294-0.806-0.47l25.222-30.057
				C292.511,307.891,297.808,307.438,301.358,310.418z"/>
			<path d="M67.265,63.069c-9.191,0-16.669,7.479-16.669,16.678c0,9.191,7.479,16.669,16.669,16.669
				c9.191,0,16.669-7.479,16.669-16.669C83.934,70.547,76.456,63.069,67.265,63.069z"/>
			<path d="M67.265,390.416c-9.191,0-16.669,7.479-16.669,16.669c0,9.199,7.479,16.678,16.669,16.678
				c9.191,0,16.669-7.479,16.669-16.678C83.934,397.894,76.456,390.416,67.265,390.416z"/>
			<path d="M406.292,420.227c7.034,5.892,17.576,4.977,23.485-2.065c2.854-3.399,4.222-7.73,3.836-12.162
				c-0.394-4.44-2.484-8.452-5.892-11.314v-0.008c-3.03-2.543-6.782-3.903-10.693-3.903c-0.487,0-0.982,0.025-1.477,0.067
				c-4.44,0.386-8.461,2.484-11.314,5.892c-2.871,3.416-4.23,7.73-3.836,12.162C400.778,413.344,402.876,417.356,406.292,420.227z"
				/>
		</g>
	</g>
</g>
</svg>