<?xml version="1.0" encoding="iso-8859-1"?>
<!-- Uploaded to: SVG Repo, www.svgrepo.com, Generator: SVG Repo Mixer Tools -->
<svg fill="#FACA15" height="800px" width="800px" version="1.1" id="Layer_1" xmlns="http://www.w3.org/2000/svg" xmlns:xlink="http://www.w3.org/1999/xlink" 
	 viewBox="0 0 503.743 503.743" xml:space="preserve">
<g>
	<g>
		<path d="M495.485,342.706h-7.085c4.938-4.179,7.696-10.554,6.97-17.548c-1.098-10.579-9.637-18.259-20.356-18.259h-0.017
			c-2.75,0-3.567-1.924-3.807-3.072c-0.248-1.14-0.273-3.212,2.238-4.311c9.745-4.294,14.443-14.757,11.19-24.865
			c-3.27-10.149-13.262-15.889-23.858-13.659c-2.684,0.619-3.906-1.131-4.377-2.213c-0.471-1.065-0.925-3.072,1.379-4.732
			c8.638-6.21,11.066-17.416,5.789-26.632c-5.302-9.257-16.235-12.858-26.36-8.349c-2.486,1.074-4.046-0.322-4.74-1.28
			c-0.677-0.933-1.544-2.816,0.479-5.029c7.151-7.862,7.201-19.324,0.116-27.252c-7.094-7.961-18.531-9.183-27.681-2.593
			c-2.221,1.602-4.013,0.529-4.905-0.272c-0.859-0.776-2.098-2.436-0.479-5.194c5.343-9.175,3.006-20.389-5.566-26.674
			c-8.605-6.309-20.042-5.145-27.177,2.742l-0.562,0.619c-1.841,2.023-3.832,1.346-4.856,0.743
			c-1.007-0.578-2.568-1.941-1.503-5.178c3.32-10.091-1.313-20.571-11.016-24.931c-9.72-4.368-20.67-0.842-26.005,8.341
			l-0.487,0.842c-1.363,2.362-3.452,2.122-4.575,1.734c-1.115-0.363-2.932-1.371-2.651-4.071l0.099-0.867
			c1.131-10.562-5.599-19.844-16.004-22.074c-10.389-2.279-20.381,3.477-23.684,13.626l-0.306,0.933
			c-0.842,2.593-2.915,2.758-4.104,2.643c-1.164-0.116-3.171-0.735-3.452-3.46l-0.099-0.941c-1.115-10.57-9.645-18.242-20.29-18.242
			c-10.645,0-19.175,7.672-20.282,18.217l-0.107,0.991c-0.281,2.7-2.287,3.32-3.452,3.435c-1.189,0.116-3.262-0.05-4.096-2.618
			l-0.322-0.983c-3.303-10.116-13.287-15.897-23.676-13.601c-10.405,2.23-17.135,11.512-16.004,22.066l0.099,0.875
			c0.281,2.7-1.536,3.708-2.651,4.071c-1.123,0.38-3.204,0.636-4.591-1.759l-0.462-0.793c-5.351-9.208-16.285-12.726-26.013-8.365
			c-9.703,4.36-14.336,14.84-10.793,25.6c0.842,2.568-0.718,3.931-1.726,4.509c-1.024,0.595-3.006,1.288-5.401-1.338
			c-7.16-7.903-18.589-9.067-27.194-2.766c-8.572,6.284-10.917,17.499-5.31,27.103c1.363,2.329,0.124,3.989-0.735,4.765
			c-0.875,0.801-2.684,1.891-5.409-0.083c-8.646-6.243-20.084-5.004-27.186,2.948c-7.077,7.919-7.028,19.39,0.322,27.458
			c1.825,2.007,0.958,3.89,0.281,4.823c-0.694,0.958-2.238,2.387-5.12,1.115c-9.745-4.335-20.67-0.743-25.98,8.506
			c-5.277,9.224-2.849,20.43,5.896,26.715c2.197,1.586,1.734,3.592,1.272,4.658c-0.471,1.074-1.693,2.783-4.575,2.18
			c-10.413-2.18-20.389,3.543-23.659,13.692c-3.262,10.108,1.445,20.571,11.206,24.873c2.494,1.09,2.469,3.163,2.23,4.302
			c-0.24,1.156-1.065,3.072-3.873,3.072c0-0.008-0.017-0.008-0.025,0c-10.653,0-19.192,7.68-20.29,18.259
			c-0.892,8.547,3.411,16.169,10.57,19.96c-1.503,1.495-2.428,3.559-2.428,5.847v41.29c0,4.567,3.7,8.258,8.258,8.258h478.968
			c4.567,0,8.258-3.691,8.258-8.258v-41.29C503.743,346.397,500.051,342.706,495.485,342.706z M247.743,235.351
			c60.961,0,110.931,47.459,115.192,107.355h-16.442c-4.203-50.787-46.889-90.839-98.75-90.839s-94.547,40.052-98.758,90.839
			h-16.434C136.812,282.81,186.782,235.351,247.743,235.351z M300.297,310.087c-3.229,3.229-8.456,3.229-11.677,0
			c-3.229-3.221-3.229-8.448,0-11.677c3.221-3.229,8.448-3.229,11.677,0C303.518,301.639,303.518,306.866,300.297,310.087z
			 M247.743,317.932c15.343,0,28.168,10.57,31.86,24.774h-17.565c-2.857-4.938-8.192-8.258-14.295-8.258s-11.437,3.32-14.295,8.258
			h-17.565C219.574,328.502,232.399,317.932,247.743,317.932z M239.485,284.899c0-4.558,3.7-8.258,8.258-8.258
			s8.258,3.7,8.258,8.258s-3.7,8.258-8.258,8.258S239.485,289.458,239.485,284.899z M206.865,310.087
			c-3.221,3.229-8.448,3.229-11.677,0c-3.221-3.221-3.221-8.448,0-11.677c3.229-3.229,8.456-3.229,11.677,0
			C210.094,301.639,210.094,306.866,206.865,310.087z M487.227,383.996H24.775v-24.774H132.13h231.226h112.838h11.033V383.996z"/>
	</g>
</g>
</svg>