<?xml version="1.0" encoding="iso-8859-1"?>
<!-- Uploaded to: SVG Repo, www.svgrepo.com, Generator: SVG Repo Mixer Tools -->
<svg fill="#FACA15" height="800px" width="800px" version="1.1" id="Layer_1" xmlns="http://www.w3.org/2000/svg" xmlns:xlink="http://www.w3.org/1999/xlink" 
	 viewBox="0 0 511.944 511.944" xml:space="preserve">
<g>
	<g>
		<path d="M498.875,106.422l-99.25-99.25c-9.563-9.572-25.114-9.554-34.677,0L363.88,8.24c-10.153,10.153-10.153,26.667,0,36.821
			l30.677,30.677L75.477,394.826l-30.685-30.677c-9.832-9.832-26.98-9.832-36.812,0c-10.153,10.153-10.153,26.659,0,36.812
			l98.391,98.399c8.392,8.383,19.413,12.583,30.442,12.583c11.047,0,22.111-4.209,30.546-12.644l0.217-0.226l18.354-18.345
			c2.048-2.048,2.942-4.99,2.369-7.836l-3.584-17.92l17.911,3.593c2.855,0.555,5.788-0.33,7.845-2.378
			c2.048-2.048,2.942-4.99,2.369-7.836l-3.575-17.929l17.911,3.584c2.846,0.547,5.788-0.321,7.836-2.369
			c2.057-2.048,2.951-4.99,2.378-7.836l-3.584-17.92l17.92,3.584c2.838,0.547,5.788-0.321,7.836-2.369
			c2.048-2.048,2.942-4.99,2.369-7.836l-3.584-17.92l17.92,3.584c2.838,0.564,5.78-0.321,7.836-2.369
			c2.048-2.057,2.942-4.99,2.378-7.845l-3.584-17.911l17.911,3.584c2.846,0.555,5.788-0.321,7.845-2.369
			c2.048-2.057,2.942-4.999,2.369-7.845l-3.575-17.92l17.903,3.584c2.846,0.547,5.788-0.312,7.845-2.369
			c2.048-2.057,2.942-4.998,2.369-7.845l-3.575-17.911l17.911,3.584c2.838,0.538,5.788-0.321,7.836-2.378
			c2.057-2.048,2.951-4.99,2.378-7.836l-3.584-17.911l17.92,3.584c2.855,0.538,5.78-0.321,7.836-2.378
			c2.048-2.048,2.942-4.99,2.369-7.836l-3.575-17.929l17.911,3.593c2.855,0.547,5.788-0.321,7.836-2.378
			c2.048-2.048,2.951-4.99,2.378-7.836l-3.584-17.92l17.911,3.584c2.855,0.555,5.788-0.312,7.845-2.369
			c2.048-2.048,2.942-4.99,2.369-7.836l-3.575-17.92l17.911,3.584c2.855,0.555,5.788-0.321,7.836-2.369
			c2.057-2.048,2.951-4.99,2.378-7.836l-3.584-17.929l17.911,3.584c2.855,0.564,5.788-0.321,7.845-2.369l18.406-18.406
			c8.192-8.201,12.705-19.092,12.705-30.677C511.579,125.514,507.067,114.623,498.875,106.422z M118.641,487.09L20.25,388.69
			c-3.384-3.384-3.384-8.895,0-12.271c1.64-1.649,3.818-2.543,6.135-2.543s4.495,0.894,6.135,2.543L148.12,492.019
			C138.522,496.662,126.607,495.048,118.641,487.09z M491.698,148.328L376.151,32.79c-3.384-3.393-3.384-8.886,0-12.279l1.067-1.067
			c1.354-1.354,3.15-2.1,5.068-2.1c1.909,0,3.714,0.746,5.068,2.1l99.25,99.25c4.912,4.92,7.619,11.455,7.619,18.415
			C494.223,141.056,493.355,144.874,491.698,148.328z"/>
	</g>
</g>
</svg>