<?xml version="1.0" encoding="iso-8859-1"?>
<!-- Uploaded to: SVG Repo, www.svgrepo.com, Generator: SVG Repo Mixer Tools -->
<svg fill="#FACA15" height="800px" width="800px" version="1.1" id="Layer_1" xmlns="http://www.w3.org/2000/svg" xmlns:xlink="http://www.w3.org/1999/xlink" 
	 viewBox="0 0 512 512" xml:space="preserve">
<g>
	<g>
		<g>
			<path d="M110.931,0H94.086C70.56,0,51.419,19.14,51.419,42.667v136.55c0,0.188,0.094,0.35,0.111,0.538
				c0.043,0.785,0.196,1.545,0.461,2.287c0.111,0.316,0.222,0.606,0.367,0.905c0.316,0.631,0.717,1.212,1.195,1.766
				c0.188,0.222,0.341,0.469,0.563,0.674c0.077,0.068,0.12,0.162,0.196,0.23c4.565,4.028,14.063,12.407,14.063,19.2
				c0,6.801-9.498,15.189-14.063,19.209c-0.068,0.068-0.102,0.145-0.171,0.205c-0.247,0.23-0.427,0.512-0.649,0.777
				c-0.427,0.521-0.811,1.05-1.101,1.638c-0.171,0.324-0.299,0.657-0.418,1.007c-0.239,0.7-0.375,1.399-0.427,2.133
				c-0.017,0.222-0.128,0.41-0.128,0.631v34.125c0,4.71,3.814,8.533,8.533,8.533H76.9l-0.043,42.667h51.2l0.043-42.667h16.964
				c4.719,0,8.533-3.823,8.533-8.533v-34.125c0-0.188-0.094-0.35-0.111-0.546c-0.043-0.785-0.196-1.536-0.452-2.278
				c-0.119-0.316-0.23-0.606-0.375-0.905c-0.316-0.64-0.725-1.212-1.195-1.766c-0.196-0.222-0.341-0.469-0.563-0.674
				c-0.077-0.068-0.119-0.162-0.196-0.23c-4.565-4.028-14.063-12.407-14.063-19.2c0-6.792,9.498-15.181,14.063-19.208
				c0.068-0.06,0.111-0.145,0.171-0.205c0.247-0.23,0.427-0.512,0.649-0.776c0.427-0.512,0.811-1.05,1.101-1.638
				c0.171-0.324,0.299-0.657,0.418-1.007c0.239-0.691,0.375-1.399,0.427-2.142c0.017-0.213,0.128-0.401,0.128-0.623V42.667
				C153.597,19.14,134.457,0,110.931,0z M94.086,42.667c0-4.71,3.814-8.533,8.533-8.533c4.71,0,8.533,3.823,8.533,8.533v102.409
				c0,4.71-3.823,8.533-8.533,8.533c-4.719,0-8.533-3.823-8.533-8.533V42.667z M125.412,187.75
				c-3.362,4.975-5.837,10.726-5.837,17.067c0,6.34,2.475,12.092,5.837,17.067H79.613c3.354-4.975,5.828-10.718,5.828-17.067
				c0-6.349-2.475-12.1-5.845-17.067H125.412z M136.531,256.009h-16.956H85.442H68.486v-17.05l68.045-0.009V256.009z"/>
			<path d="M264.314,0h-16.845c-23.526,0-42.667,19.14-42.667,42.667v136.55c0,0.188,0.094,0.35,0.111,0.538
				c0.043,0.785,0.196,1.545,0.461,2.287c0.111,0.316,0.222,0.606,0.367,0.905c0.316,0.631,0.717,1.212,1.195,1.766
				c0.188,0.222,0.341,0.469,0.563,0.674c0.077,0.068,0.119,0.162,0.196,0.23c4.565,4.028,14.063,12.407,14.063,19.2
				c0,6.784-9.498,15.181-14.063,19.217c-0.068,0.06-0.102,0.137-0.162,0.188c-0.265,0.247-0.444,0.538-0.674,0.811
				c-0.418,0.503-0.794,1.024-1.084,1.604c-0.162,0.333-0.299,0.666-0.418,1.024c-0.239,0.691-0.375,1.399-0.427,2.125
				c-0.017,0.222-0.128,0.41-0.128,0.631v34.125c0,4.71,3.814,8.533,8.533,8.533H230.3l0.094,136.533h51.2L281.5,273.075h16.947
				c4.719,0,8.533-3.823,8.533-8.533v-34.125c0-0.188-0.094-0.35-0.111-0.546c-0.043-0.785-0.196-1.536-0.452-2.278
				c-0.12-0.316-0.23-0.606-0.375-0.905c-0.316-0.64-0.725-1.212-1.195-1.766c-0.196-0.222-0.341-0.469-0.563-0.674
				c-0.077-0.068-0.119-0.162-0.196-0.23c-4.565-4.028-14.063-12.407-14.063-19.2c0-6.81,9.498-15.181,14.054-19.208
				c0.068-0.06,0.102-0.137,0.171-0.196c0.256-0.239,0.444-0.529,0.666-0.794c0.427-0.521,0.802-1.041,1.092-1.63
				c0.162-0.324,0.29-0.648,0.418-1.007c0.239-0.691,0.375-1.399,0.427-2.142c0.017-0.213,0.128-0.401,0.128-0.623V42.667
				C306.981,19.14,287.84,0,264.314,0z M247.469,42.667c0-4.71,3.814-8.533,8.533-8.533c4.71,0,8.533,3.823,8.533,8.533v102.409
				c0,4.71-3.823,8.533-8.533,8.533c-4.719,0-8.533-3.823-8.533-8.533V42.667z M278.787,187.75
				c-3.354,4.975-5.828,10.718-5.828,17.067c0,6.34,2.475,12.092,5.837,17.067h-45.807c3.362-4.975,5.837-10.726,5.837-17.067
				c0-6.349-2.475-12.1-5.845-17.067H278.787z M289.914,256.009h-16.956h-34.133h-16.956v-17.05l68.045-0.009V256.009z"/>
			<path d="M457.679,185.609c0.068-0.06,0.102-0.137,0.171-0.196c0.256-0.239,0.444-0.529,0.666-0.794
				c0.427-0.521,0.802-1.041,1.092-1.63c0.162-0.324,0.29-0.648,0.418-1.007c0.239-0.691,0.375-1.399,0.427-2.142
				c0.017-0.213,0.128-0.401,0.128-0.623V42.667C460.581,19.14,441.44,0,417.914,0h-16.845c-23.526,0-42.667,19.14-42.667,42.667
				v136.55c0,0.188,0.094,0.35,0.111,0.538c0.043,0.785,0.196,1.545,0.461,2.287c0.111,0.316,0.222,0.606,0.367,0.905
				c0.316,0.631,0.717,1.212,1.195,1.766c0.188,0.222,0.341,0.469,0.563,0.674c0.077,0.068,0.119,0.162,0.196,0.23
				c4.565,4.028,14.063,12.407,14.063,19.2c0,6.784-9.498,15.181-14.063,19.217c-0.068,0.06-0.102,0.137-0.162,0.188
				c-0.265,0.247-0.444,0.538-0.674,0.811c-0.418,0.503-0.794,1.024-1.084,1.604c-0.162,0.333-0.299,0.666-0.418,1.024
				c-0.239,0.691-0.375,1.399-0.427,2.125c-0.017,0.222-0.128,0.41-0.128,0.631v34.125c0,4.71,3.814,8.533,8.533,8.533h16.956
				v136.533h51.2V273.075h16.956c4.719,0,8.533-3.823,8.533-8.533v-34.125c0-0.188-0.094-0.35-0.111-0.546
				c-0.043-0.785-0.196-1.536-0.452-2.278c-0.12-0.316-0.23-0.606-0.375-0.905c-0.316-0.64-0.725-1.212-1.195-1.766
				c-0.196-0.222-0.341-0.469-0.563-0.674c-0.077-0.068-0.119-0.162-0.196-0.23c-4.565-4.028-14.063-12.407-14.063-19.2
				C443.625,198.007,453.123,189.636,457.679,185.609z M401.069,42.667c0-4.71,3.814-8.533,8.533-8.533
				c4.71,0,8.533,3.823,8.533,8.533v102.409c0,4.71-3.823,8.533-8.533,8.533c-4.719,0-8.533-3.823-8.533-8.533V42.667z
				 M432.387,187.75c-3.354,4.975-5.828,10.718-5.828,17.067c0,6.34,2.475,12.092,5.837,17.067h-45.807
				c3.362-4.975,5.837-10.726,5.837-17.067c0-6.349-2.475-12.1-5.845-17.067H432.387z M443.514,256.009h-16.956h-34.133h-16.956
				v-17.05l68.045-0.009V256.009z"/>
			<path d="M76.8,366.921c0,0.572,0.06,1.152,0.171,1.715l6.946,34.33c1.784,8.789,9.591,15.172,18.577,15.172
				c9.003,0,16.819-6.417,18.577-15.266l6.767-34.278c0.102-0.538,0.162-1.084,0.162-1.63l0.034-34.159h-51.2L76.8,366.921z"/>
			<path d="M286.875,426.675h-61.747l-2.364,4.719c-0.589,1.178-0.896,2.492-0.896,3.814v34.133c0,4.71,3.814,8.533,8.533,8.533
				h51.2c4.719,0,8.533-3.823,8.533-8.533v-34.133c0-1.323-0.307-2.637-0.905-3.814L286.875,426.675z"/>
			<path d="M436.944,426.675H381.99l-6.571,32.427c-0.324,1.638-0.179,3.337,0.452,4.89l17.169,42.667
				c1.306,3.226,4.437,5.342,7.919,5.342h17.067c3.499,0,6.639-2.133,7.936-5.385l16.956-42.667
				c0.597-1.527,0.759-3.191,0.444-4.804L436.944,426.675z"/>
		</g>
	</g>
</g>
</svg>