<svg fill="#FACA15" height="800px" width="800px" version="1.1" id="Layer_1" xmlns="http://www.w3.org/2000/svg" xmlns:xlink="http://www.w3.org/1999/xlink" 
	 viewBox="0 0 503.607 503.607" xml:space="preserve">
<g>
	<g>
		<path d="M475.069,197.563c-18.466-11.751-30.216-33.574-30.216-56.236V123.7c0-30.216-21.823-56.236-51.2-60.433
			c-16.787-2.518-33.574,2.518-46.164,14.269c-10.911,9.233-17.626,21.823-19.305,36.092H175.423
			c-4.197-26.02-24.341-46.164-50.361-49.521c-16.787-2.518-33.574,2.518-46.164,14.269c-12.59,10.911-20.144,26.859-20.144,43.646
			v19.305c0,22.662-10.911,44.485-29.377,56.236h-0.839C10.911,208.474,0,227.779,0,247.923v193.049h218.229h16.787h268.59v-33.574
			h-67.148c-5.036,0-8.393-3.357-8.393-8.393c0-5.036,3.357-8.393,8.393-8.393h67.148v-16.787H377.705
			c-5.036,0-8.393-3.357-8.393-8.393s3.357-8.393,8.393-8.393h125.902v-16.787h-75.541c-5.036,0-8.393-3.357-8.393-8.393
			c0-5.036,3.357-8.393,8.393-8.393h75.541v-16.787h-67.148c-5.036,0-8.393-3.357-8.393-8.393s3.357-8.393,8.393-8.393h67.148
			v-16.787v-16.787v-8.393C503.607,227.779,492.695,208.474,475.069,197.563z M218.229,256.317v41.967v33.574v33.574v33.574v25.18
			H16.787V247.923c0-14.269,7.554-27.698,20.984-36.092l0.839-0.839c22.662-14.269,36.931-41.128,36.931-69.666v-19.305
			c0-11.751,5.036-23.502,14.269-31.895c9.233-8.393,20.984-11.751,33.574-10.072c20.984,3.357,36.092,21.823,36.092,43.646v17.626
			c0,28.538,14.269,55.397,36.931,70.505l0.839,0.839c13.43,8.393,20.984,21.823,20.984,36.092V256.317z M206.479,197.563
			c-18.466-11.751-30.216-33.574-30.216-56.236v-10.911h151.082v10.911c0,23.502-10.911,44.485-30.216,56.236
			c-17.626,10.911-28.538,30.216-28.538,50.361v8.393h-33.574v-8.393C235.016,227.779,224.105,208.474,206.479,197.563z
			 M235.016,340.251v-16.787h100.721c5.036,0,8.393,3.357,8.393,8.393c0,5.036-3.357,8.393-8.393,8.393H235.016z M293.771,365.431
			c0,5.036-3.357,8.393-8.393,8.393h-50.361v-16.787h50.361C290.413,357.038,293.771,361.235,293.771,365.431z M293.771,306.677
			h-58.754v-16.787h58.754c5.036,0,8.393,3.357,8.393,8.393S298.807,306.677,293.771,306.677z M293.771,407.399h-58.754v-16.787
			h58.754c5.036,0,8.393,3.357,8.393,8.393C302.164,404.041,298.807,407.399,293.771,407.399z M310.557,365.431
			c0-5.036,3.357-8.393,8.393-8.393h25.18c5.036,0,8.393,3.357,8.393,8.393s-3.357,8.393-8.393,8.393h-25.18
			C314.754,373.825,310.557,370.468,310.557,365.431z M402.885,390.612c5.036,0,8.393,3.357,8.393,8.393
			c0,5.036-3.357,8.393-8.393,8.393h-75.541c-5.036,0-8.393-3.357-8.393-8.393c0-5.036,3.357-8.393,8.393-8.393H402.885z
			 M394.492,340.251h-25.18c-5.036,0-8.393-3.357-8.393-8.393c0-5.036,3.357-8.393,8.393-8.393h25.18
			c5.036,0,8.393,3.357,8.393,8.393C402.885,336.894,399.528,340.251,394.492,340.251z M402.885,306.677h-75.541
			c-5.036,0-8.393-3.357-8.393-8.393s3.357-8.393,8.393-8.393h75.541c5.036,0,8.393,3.357,8.393,8.393
			S407.921,306.677,402.885,306.677z M486.82,256.317H285.377v-8.393c0-14.269,7.554-27.698,20.984-36.092l0.839-0.839
			c22.662-14.269,36.931-41.128,36.931-70.505v-10.072h41.967c5.036,0,8.393-3.357,8.393-8.393c0-5.036-3.357-8.393-8.393-8.393
			H344.97c1.679-9.233,6.715-16.787,13.43-23.502c9.233-8.393,20.984-11.751,33.574-10.072
			c20.984,3.357,36.092,21.823,36.092,43.646v17.626c0,28.538,14.269,56.236,37.771,70.505c13.43,8.393,20.984,21.823,20.984,36.092
			V256.317z"/>
	</g>
</g>
</svg>