<?xml version="1.0" encoding="iso-8859-1"?>
<!-- Uploaded to: SVG Repo, www.svgrepo.com, Generator: SVG Repo Mixer Tools -->
<svg fill="#FACA15" version="1.1" id="Layer_1" xmlns="http://www.w3.org/2000/svg" xmlns:xlink="http://www.w3.org/1999/xlink" 
	 viewBox="0 0 512.017 512.017" xml:space="preserve">
<g>
	<g>
		<g>
			<rect x="187.754" y="136.529" width="34.133" height="17.067"/>
			<path d="M445.416,435.191c-0.051-0.085-0.102-0.171-0.154-0.256L307.987,215.484c-21.316-34.082-33.118-73.02-34.603-113.084
				h8.235c2.56,0,4.975-1.152,6.596-3.123c1.621-1.98,2.278-4.574,1.766-7.083C285.502,69.751,236.085,0,204.819,0
				c-4.71,0-8.533,3.814-8.533,8.533v76.8h-68.267v-76.8c0-2.918-1.493-5.632-3.951-7.202c-2.475-1.562-5.564-1.766-8.201-0.521
				c-25.89,12.117-56.115,41.523-56.115,84.523c0,36.762,13.201,60.74,43.196,77.995c51.021,28.254,93.525,67.925,122.906,114.697
				l71.927,114.509h52.105c4.71,0,8.533,3.814,8.533,8.533s-3.823,8.533-8.533,8.533h-41.387l10.718,17.067h56.269
				c4.71,0,8.533,3.814,8.533,8.533c0,4.719-3.823,8.533-8.533,8.533h-45.542l26.795,42.658
				c6.835,11.844,17.877,20.318,31.087,23.859c4.412,1.186,8.892,1.766,13.338,1.766c8.866,0,17.63-2.33,25.515-6.886
				C451.125,491.017,459.53,459.639,445.416,435.191z M238.952,162.133c0,4.719-3.823,8.533-8.533,8.533h-51.2
				c-4.71,0-8.533-3.814-8.533-8.533V128c0-4.719,3.823-8.533,8.533-8.533h51.2c4.71,0,8.533,3.814,8.533,8.533V162.133z"/>
		</g>
	</g>
</g>
</svg>