<?xml version="1.0" encoding="iso-8859-1"?>
<!-- Uploaded to: SVG Repo, www.svgrepo.com, Generator: SVG Repo Mixer Tools -->
<svg fill="#FACA15" height="800px" width="800px" version="1.1" id="Layer_1" xmlns="http://www.w3.org/2000/svg" xmlns:xlink="http://www.w3.org/1999/xlink" 
	 viewBox="0 0 512 512" xml:space="preserve">
<g>
	<g>
		<path d="M362.649,158.72c-0.853-2.56-4.267-5.12-7.68-5.12H250.863V85.333h93.867c5.12,0,8.533-3.413,8.533-8.533V51.2
			c0-2.56-0.853-5.12-2.56-5.973l-33.28-29.867C304.623,5.12,291.823,0,276.463,0h-34.133c-37.547,0-68.267,30.72-68.267,68.267
			V153.6h-17.067c-5.12,0-8.533,3.413-8.533,8.533v51.2c0,5.12,3.413,8.533,8.533,8.533h17.067v42.667v34.133V332.8
			c0,23.893,18.773,42.667,42.667,42.667c9.387,0,18.773-3.413,25.6-8.533v51.2h34.133c5.12,0,8.533,3.413,8.533,8.533
			s-3.413,8.533-8.533,8.533h-34.133v17.067h34.133c5.12,0,8.533,3.413,8.533,8.533c0,5.12-3.413,8.533-8.533,8.533h-34.133
			c0,23.893,18.773,42.667,42.667,42.667c23.893,0,42.667-18.773,42.667-42.667v-222.72c0-29.867,11.947-58.027,33.28-78.507
			C363.503,165.547,364.356,162.133,362.649,158.72z M242.329,332.8c0,14.507-11.093,25.6-25.6,25.6s-25.6-11.093-25.6-25.6v-25.6
			h51.2V332.8z M242.329,256h-51.2v-34.133h51.2V256z M233.796,76.8v76.8h-42.667V68.267c0-28.16,23.04-51.2,51.2-51.2h34.133
			c11.093,0,20.48,3.413,29.867,11.093l30.72,27.307v12.8h-94.72C238.063,68.267,233.796,72.533,233.796,76.8z"/>
	</g>
</g>
</svg>