<?xml version="1.0" encoding="iso-8859-1"?>
<!-- Uploaded to: SVG Repo, www.svgrepo.com, Generator: SVG Repo Mixer Tools -->
<svg fill="#FACA15" height="800px" width="800px" version="1.1" id="Layer_1" xmlns="http://www.w3.org/2000/svg" xmlns:xlink="http://www.w3.org/1999/xlink" 
	 viewBox="0 0 509.622 509.622" xml:space="preserve">
<g>
	<g>
		<path d="M305.593,396.99c-11.187-53.683-16.649-91.844-16.649-116.531v-51.2c0-44.092,5.282-81.178,16.614-116.702
			c11.187-12.442,17.519-28.527,17.519-45.534c0-20.634-9.207-39.953-25.259-52.992c-2.244-1.818-5.257-2.372-8.013-1.493
			c-2.756,0.896-4.864,3.123-5.606,5.914l-12.595,46.985l-0.094,0.026c-11.75,3.959-24.619,0.521-32.811-8.789l-0.06-0.077
			l12.288-45.858c0.759-2.859-0.009-5.914-2.039-8.064c-2.031-2.159-5.035-3.089-7.927-2.5
			c-36.105,7.45-59.571,41.984-53.427,78.618c2.167,12.928,8.149,24.567,16.58,33.937c11.298,35.473,16.563,72.508,16.563,116.531
			v51.2c0,7.296-0.538,15.915-1.493,25.6h27.093c4.71,0,8.533,3.823,8.533,8.533c0,4.719-3.823,8.533-8.533,8.533H217.17
			c-0.725,5.402-1.553,11.068-2.517,17.067h31.625c4.71,0,8.533,3.823,8.533,8.533c0,4.719-3.823,8.533-8.533,8.533H211.76
			c-2.185,12.22-4.753,25.463-7.757,39.876c-11.145,12.433-17.459,28.484-17.459,45.457c0,20.642,9.207,39.953,25.267,53
			c2.244,1.818,5.265,2.381,8.004,1.493c2.756-0.896,4.864-3.123,5.615-5.914l12.587-46.985c11.802-3.994,24.738-0.521,32.973,8.841
			l-12.288,45.858c-0.768,2.859,0,5.905,2.031,8.055c1.63,1.732,3.883,2.68,6.212,2.68c0.563,0,1.143-0.051,1.724-0.171
			c36.105-7.45,59.571-41.984,53.419-78.618C319.929,417.948,313.981,406.352,305.593,396.99z M253.522,118.113
			c-1.024-0.017-2.039-0.009-3.063-0.085c-1.946-0.162-3.908-0.418-5.871-0.794c-0.043-0.009-0.094-0.009-0.137-0.017
			c-2.44-0.478-4.83-1.161-7.151-1.997c-0.879-0.324-1.724-0.776-2.586-1.152c-1.391-0.597-2.782-1.161-4.105-1.877
			c-1.186-0.649-2.313-1.434-3.447-2.176c-0.905-0.589-1.843-1.135-2.705-1.775c-1.306-0.973-2.534-2.082-3.755-3.183
			c-8.388-7.569-14.43-17.758-16.333-29.09c-3.755-22.366,7.125-43.674,25.847-53.888l-9.25,34.517
			c-0.734,2.748-0.051,5.7,1.835,7.842l3.089,3.507c12.74,14.498,32.802,19.883,51.089,13.688l4.412-1.493
			c2.705-0.913,4.779-3.115,5.513-5.879l9.822-36.634c5.99,8.516,9.284,18.722,9.284,29.397c0,13.909-5.632,27.008-15.505,36.625
			c-0.017,0.017-0.034,0.017-0.043,0.034c-1.468,1.425-3.012,2.739-4.599,3.968c-0.196,0.145-0.393,0.29-0.597,0.435
			c-1.34,0.998-2.722,1.92-4.139,2.773c-0.512,0.307-1.033,0.606-1.553,0.896c-1.092,0.606-2.21,1.161-3.337,1.69
			c-0.819,0.375-1.638,0.742-2.483,1.075c-0.862,0.341-1.732,0.649-2.62,0.947c-1.05,0.35-2.116,0.7-3.191,0.981
			c-0.717,0.188-1.442,0.341-2.167,0.503c-1.203,0.256-2.406,0.512-3.627,0.691c-0.708,0.102-1.434,0.145-2.159,0.222
			c-1.212,0.128-2.424,0.256-3.652,0.29C255.408,118.189,254.461,118.138,253.522,118.113z M279.404,487.546l9.25-34.517
			c0.742-2.756,0.051-5.7-1.835-7.842l-3.004-3.422c-9.267-10.547-22.383-16.273-35.891-16.273c-5.137,0-10.334,0.828-15.403,2.534
			l-4.301,1.459c-2.697,0.922-4.77,3.123-5.504,5.88l-9.813,36.634c-5.999-8.516-9.293-18.731-9.293-29.406
			c0-13.858,5.589-26.914,15.403-36.523c0.017-0.017,0.034-0.017,0.051-0.034c1.476-1.442,3.012-2.765,4.608-4.002
			c0.205-0.154,0.41-0.299,0.614-0.444c1.34-1.007,2.714-1.929,4.122-2.782c0.529-0.324,1.067-0.623,1.604-0.922
			c1.084-0.606,2.193-1.169,3.319-1.69c0.819-0.384,1.655-0.751,2.5-1.092c0.862-0.341,1.732-0.648,2.611-0.947
			c1.058-0.35,2.125-0.7,3.209-0.981c0.717-0.196,1.451-0.35,2.176-0.503c1.203-0.265,2.398-0.512,3.618-0.691
			c0.717-0.102,1.442-0.162,2.167-0.23c1.212-0.119,2.423-0.247,3.652-0.29c0.939-0.026,1.894,0.017,2.842,0.043
			c1.015,0.026,2.022,0.008,3.038,0.094c2.005,0.162,4.011,0.418,6.025,0.811c2.458,0.469,4.847,1.161,7.177,2.005
			c0.853,0.307,1.655,0.751,2.5,1.109c1.425,0.606,2.859,1.195,4.224,1.937c1.135,0.614,2.202,1.374,3.302,2.082
			c0.964,0.623,1.954,1.203,2.876,1.894c1.271,0.956,2.466,2.039,3.661,3.123c8.397,7.569,14.447,17.758,16.35,29.099
			C309.015,456.024,298.126,477.332,279.404,487.546z"/>
	</g>
</g>
</svg>